<svg id="visual" viewBox="0 0 900 600" width="900" height="600" xmlns="http://www.w3.org/2000/svg" xmlns:xlink="http://www.w3.org/1999/xlink" version="1.1"><g stroke-width="1" stroke-linejoin="bevel"><path d="M423 272.1L386 350.9L427 339.9Z" fill="#000f33" stroke="#000f33"></path><path d="M386 350.9L386 401.6L427 339.9Z" fill="#001e42" stroke="#001e42"></path><path d="M423 272.1L336 233.1L386 350.9Z" fill="#008792" stroke="#008792"></path><path d="M386 350.9L281 333.9L386 401.6Z" fill="#00778c" stroke="#00778c"></path><path d="M558 274.1L436 197.4L423 272.1Z" fill="#00496b" stroke="#00496b"></path><path d="M423 272.1L436 197.4L336 233.1Z" fill="#00496b" stroke="#00496b"></path><path d="M336 233.1L281 333.9L386 350.9Z" fill="#009795" stroke="#009795"></path><path d="M460 439.6L514 336.9L427 339.9Z" fill="#005878" stroke="#005878"></path><path d="M427 339.9L514 336.9L423 272.1Z" fill="#002c50" stroke="#002c50"></path><path d="M386 401.6L460 439.6L427 339.9Z" fill="#001e42" stroke="#001e42"></path><path d="M296 166.4L258 241.1L336 233.1Z" fill="#000f33" stroke="#000f33"></path><path d="M336 233.1L258 241.1L281 333.9Z" fill="#00496b" stroke="#00496b"></path><path d="M436 197.4L379 146.4L336 233.1Z" fill="#001e42" stroke="#001e42"></path><path d="M608 318.9L558 274.1L514 336.9Z" fill="#29a695" stroke="#29a695"></path><path d="M514 336.9L558 274.1L423 272.1Z" fill="#002c50" stroke="#002c50"></path><path d="M436 197.4L449 105.7L379 146.4Z" fill="#00496b" stroke="#00496b"></path><path d="M379 146.4L296 166.4L336 233.1Z" fill="#005878" stroke="#005878"></path><path d="M189 368.9L261 424.6L281 333.9Z" fill="#005878" stroke="#005878"></path><path d="M281 333.9L261 424.6L386 401.6Z" fill="#005878" stroke="#005878"></path><path d="M386 401.6L346 500.3L460 439.6Z" fill="#00496b" stroke="#00496b"></path><path d="M261 424.6L346 500.3L386 401.6Z" fill="#003a5e" stroke="#003a5e"></path><path d="M558 274.1L560 180.4L436 197.4Z" fill="#002c50" stroke="#002c50"></path><path d="M527 516.3L560 435.6L460 439.6Z" fill="#003a5e" stroke="#003a5e"></path><path d="M460 439.6L560 435.6L514 336.9Z" fill="#003a5e" stroke="#003a5e"></path><path d="M558 274.1L656 260.1L560 180.4Z" fill="#006884" stroke="#006884"></path><path d="M560 180.4L449 105.7L436 197.4Z" fill="#00778c" stroke="#00778c"></path><path d="M379 146.4L380 80.7L296 166.4Z" fill="#003a5e" stroke="#003a5e"></path><path d="M614 410.6L608 318.9L514 336.9Z" fill="#003a5e" stroke="#003a5e"></path><path d="M170 157.4L186 262.1L258 241.1Z" fill="#009795" stroke="#009795"></path><path d="M258 241.1L186 262.1L281 333.9Z" fill="#002c50" stroke="#002c50"></path><path d="M186 262.1L189 368.9L281 333.9Z" fill="#001e42" stroke="#001e42"></path><path d="M261 424.6L258 536.3L346 500.3Z" fill="#29a695" stroke="#29a695"></path><path d="M346 500.3L457 516.3L460 439.6Z" fill="#000f33" stroke="#000f33"></path><path d="M449 105.7L380 80.7L379 146.4Z" fill="#000f33" stroke="#000f33"></path><path d="M296 166.4L170 157.4L258 241.1Z" fill="#009795" stroke="#009795"></path><path d="M560 435.6L614 410.6L514 336.9Z" fill="#006884" stroke="#006884"></path><path d="M607 520.3L614 410.6L560 435.6Z" fill="#005878" stroke="#005878"></path><path d="M63 318.9L178 411.6L189 368.9Z" fill="#29a695" stroke="#29a695"></path><path d="M189 368.9L178 411.6L261 424.6Z" fill="#005878" stroke="#005878"></path><path d="M457 516.3L527 516.3L460 439.6Z" fill="#008792" stroke="#008792"></path><path d="M701 268.1L656 260.1L608 318.9Z" fill="#008792" stroke="#008792"></path><path d="M608 318.9L656 260.1L558 274.1Z" fill="#000f33" stroke="#000f33"></path><path d="M170 528.3L258 536.3L261 424.6Z" fill="#00496b" stroke="#00496b"></path><path d="M346 500.3L440 600L457 516.3Z" fill="#001e42" stroke="#001e42"></path><path d="M457 516.3L440 600L527 516.3Z" fill="#00778c" stroke="#00778c"></path><path d="M380 80.7L249 83.7L296 166.4Z" fill="#29a695" stroke="#29a695"></path><path d="M249 83.7L170 157.4L296 166.4Z" fill="#29a695" stroke="#29a695"></path><path d="M186 262.1L106 276.1L189 368.9Z" fill="#000f33" stroke="#000f33"></path><path d="M560 180.4L565 81.7L449 105.7Z" fill="#009795" stroke="#009795"></path><path d="M474 0L369 0L380 80.7Z" fill="#005878" stroke="#005878"></path><path d="M650 157.4L565 81.7L560 180.4Z" fill="#002c50" stroke="#002c50"></path><path d="M90 197.4L106 276.1L186 262.1Z" fill="#006884" stroke="#006884"></path><path d="M656 260.1L650 157.4L560 180.4Z" fill="#008792" stroke="#008792"></path><path d="M339 600L440 600L346 500.3Z" fill="#005878" stroke="#005878"></path><path d="M258 536.3L339 600L346 500.3Z" fill="#006884" stroke="#006884"></path><path d="M559 600L607 520.3L527 516.3Z" fill="#00778c" stroke="#00778c"></path><path d="M527 516.3L607 520.3L560 435.6Z" fill="#006884" stroke="#006884"></path><path d="M744 362.9L701 268.1L608 318.9Z" fill="#00778c" stroke="#00778c"></path><path d="M744 362.9L608 318.9L614 410.6Z" fill="#000f33" stroke="#000f33"></path><path d="M656 260.1L711 157.4L650 157.4Z" fill="#003a5e" stroke="#003a5e"></path><path d="M474 0L380 80.7L449 105.7Z" fill="#29a695" stroke="#29a695"></path><path d="M380 80.7L369 0L249 83.7Z" fill="#00778c" stroke="#00778c"></path><path d="M178 411.6L170 528.3L261 424.6Z" fill="#008792" stroke="#008792"></path><path d="M258 536.3L262 600L339 600Z" fill="#00496b" stroke="#00496b"></path><path d="M79 454.6L170 528.3L178 411.6Z" fill="#00496b" stroke="#00496b"></path><path d="M562 0L474 0L565 81.7Z" fill="#009795" stroke="#009795"></path><path d="M565 81.7L474 0L449 105.7Z" fill="#006884" stroke="#006884"></path><path d="M170 528.3L262 600L258 536.3Z" fill="#006884" stroke="#006884"></path><path d="M166 0L163 82.7L249 83.7Z" fill="#29a695" stroke="#29a695"></path><path d="M249 83.7L163 82.7L170 157.4Z" fill="#001e42" stroke="#001e42"></path><path d="M170 157.4L90 197.4L186 262.1Z" fill="#002c50" stroke="#002c50"></path><path d="M114 77.7L90 197.4L170 157.4Z" fill="#005878" stroke="#005878"></path><path d="M0 240.1L63 318.9L106 276.1Z" fill="#006884" stroke="#006884"></path><path d="M106 276.1L63 318.9L189 368.9Z" fill="#000f33" stroke="#000f33"></path><path d="M440 600L559 600L527 516.3Z" fill="#009795" stroke="#009795"></path><path d="M369 0L248 0L249 83.7Z" fill="#005878" stroke="#005878"></path><path d="M650 157.4L653 78.7L565 81.7Z" fill="#002c50" stroke="#002c50"></path><path d="M711 157.4L653 78.7L650 157.4Z" fill="#002c50" stroke="#002c50"></path><path d="M701 268.1L711 157.4L656 260.1Z" fill="#29a695" stroke="#29a695"></path><path d="M704 503.3L614 410.6L607 520.3Z" fill="#006884" stroke="#006884"></path><path d="M704 503.3L717 445.6L614 410.6Z" fill="#00496b" stroke="#00496b"></path><path d="M701 268.1L817 282.1L711 157.4Z" fill="#00496b" stroke="#00496b"></path><path d="M638 0L562 0L565 81.7Z" fill="#00496b" stroke="#00496b"></path><path d="M63 318.9L79 454.6L178 411.6Z" fill="#003a5e" stroke="#003a5e"></path><path d="M717 445.6L744 362.9L614 410.6Z" fill="#00778c" stroke="#00778c"></path><path d="M559 600L605 600L607 520.3Z" fill="#006884" stroke="#006884"></path><path d="M166 0L114 77.7L163 82.7Z" fill="#29a695" stroke="#29a695"></path><path d="M163 82.7L114 77.7L170 157.4Z" fill="#003a5e" stroke="#003a5e"></path><path d="M0 240.1L0 334.9L63 318.9Z" fill="#006884" stroke="#006884"></path><path d="M605 600L704 503.3L607 520.3Z" fill="#005878" stroke="#005878"></path><path d="M789 440.6L802 325.9L744 362.9Z" fill="#006884" stroke="#006884"></path><path d="M81 530.3L157 600L170 528.3Z" fill="#000f33" stroke="#000f33"></path><path d="M170 528.3L157 600L262 600Z" fill="#000f33" stroke="#000f33"></path><path d="M248 0L166 0L249 83.7Z" fill="#001e42" stroke="#001e42"></path><path d="M79 454.6L81 530.3L170 528.3Z" fill="#005878" stroke="#005878"></path><path d="M0 502.3L81 530.3L79 454.6Z" fill="#001e42" stroke="#001e42"></path><path d="M700 0L638 0L653 78.7Z" fill="#00496b" stroke="#00496b"></path><path d="M653 78.7L638 0L565 81.7Z" fill="#00778c" stroke="#00778c"></path><path d="M0 240.1L106 276.1L90 197.4Z" fill="#00778c" stroke="#00778c"></path><path d="M63 318.9L0 405.6L79 454.6Z" fill="#001e42" stroke="#001e42"></path><path d="M0 188.4L90 197.4L0 95.7Z" fill="#00496b" stroke="#00496b"></path><path d="M0 188.4L0 240.1L90 197.4Z" fill="#00778c" stroke="#00778c"></path><path d="M789 440.6L744 362.9L717 445.6Z" fill="#002c50" stroke="#002c50"></path><path d="M744 362.9L802 325.9L701 268.1Z" fill="#003a5e" stroke="#003a5e"></path><path d="M711 157.4L746 66.7L653 78.7Z" fill="#005878" stroke="#005878"></path><path d="M0 334.9L0 405.6L63 318.9Z" fill="#00778c" stroke="#00778c"></path><path d="M0 95.7L90 197.4L114 77.7Z" fill="#000f33" stroke="#000f33"></path><path d="M825 523.3L789 440.6L704 503.3Z" fill="#002c50" stroke="#002c50"></path><path d="M704 503.3L789 440.6L717 445.6Z" fill="#000f33" stroke="#000f33"></path><path d="M900 318.9L817 282.1L802 325.9Z" fill="#001e42" stroke="#001e42"></path><path d="M802 325.9L817 282.1L701 268.1Z" fill="#29a695" stroke="#29a695"></path><path d="M0 600L89 600L81 530.3Z" fill="#00778c" stroke="#00778c"></path><path d="M81 530.3L89 600L157 600Z" fill="#001e42" stroke="#001e42"></path><path d="M794 111.7L746 66.7L711 157.4Z" fill="#003a5e" stroke="#003a5e"></path><path d="M746 66.7L700 0L653 78.7Z" fill="#003a5e" stroke="#003a5e"></path><path d="M166 0L84 0L114 77.7Z" fill="#001e42" stroke="#001e42"></path><path d="M0 405.6L0 502.3L79 454.6Z" fill="#00496b" stroke="#00496b"></path><path d="M833 144.4L794 111.7L711 157.4Z" fill="#000f33" stroke="#000f33"></path><path d="M746 66.7L799 0L700 0Z" fill="#000f33" stroke="#000f33"></path><path d="M84 0L0 95.7L114 77.7Z" fill="#00496b" stroke="#00496b"></path><path d="M605 600L745 600L704 503.3Z" fill="#009795" stroke="#009795"></path><path d="M817 282.1L833 144.4L711 157.4Z" fill="#000f33" stroke="#000f33"></path><path d="M794 111.7L799 0L746 66.7Z" fill="#00778c" stroke="#00778c"></path><path d="M745 600L825 523.3L704 503.3Z" fill="#000f33" stroke="#000f33"></path><path d="M900 419.6L900 318.9L802 325.9Z" fill="#006884" stroke="#006884"></path><path d="M817 282.1L900 176.4L833 144.4Z" fill="#002c50" stroke="#002c50"></path><path d="M0 502.3L0 600L81 530.3Z" fill="#002c50" stroke="#002c50"></path><path d="M84 0L0 0L0 95.7Z" fill="#005878" stroke="#005878"></path><path d="M900 419.6L802 325.9L789 440.6Z" fill="#00496b" stroke="#00496b"></path><path d="M900 318.9L900 257.1L817 282.1Z" fill="#003a5e" stroke="#003a5e"></path><path d="M900 81.7L794 111.7L833 144.4Z" fill="#000f33" stroke="#000f33"></path><path d="M900 81.7L799 0L794 111.7Z" fill="#002c50" stroke="#002c50"></path><path d="M745 600L812 600L825 523.3Z" fill="#000f33" stroke="#000f33"></path><path d="M825 523.3L900 419.6L789 440.6Z" fill="#000f33" stroke="#000f33"></path><path d="M900 511.3L900 419.6L825 523.3Z" fill="#006884" stroke="#006884"></path><path d="M900 257.1L900 176.4L817 282.1Z" fill="#003a5e" stroke="#003a5e"></path><path d="M900 600L900 511.3L825 523.3Z" fill="#001e42" stroke="#001e42"></path><path d="M900 176.4L900 81.7L833 144.4Z" fill="#008792" stroke="#008792"></path><path d="M812 600L900 600L825 523.3Z" fill="#00778c" stroke="#00778c"></path><path d="M900 81.7L900 0L799 0Z" fill="#29a695" stroke="#29a695"></path></g></svg>