<svg id="visual" viewBox="0 0 1920 1080" width="1920" height="1080" xmlns="http://www.w3.org/2000/svg" xmlns:xlink="http://www.w3.org/1999/xlink" version="1.1"><rect x="0" y="0" width="1920" height="1080" fill="#001220"></rect><g fill="#A7233A"><circle r="74" cx="1738" cy="986"></circle><circle r="37" cx="1416" cy="794"></circle><circle r="40" cx="888" cy="993"></circle><circle r="63" cx="813" cy="322"></circle><circle r="54" cx="1908" cy="175"></circle><circle r="37" cx="326" cy="62"></circle><circle r="40" cx="1012" cy="154"></circle><circle r="57" cx="1481" cy="491"></circle><circle r="63" cx="1201" cy="109"></circle><circle r="49" cx="422" cy="320"></circle><circle r="65" cx="1156" cy="345"></circle><circle r="57" cx="1113" cy="904"></circle><circle r="45" cx="1404" cy="208"></circle><circle r="55" cx="1800" cy="329"></circle><circle r="63" cx="1352" cy="567"></circle><circle r="55" cx="220" cy="172"></circle><circle r="63" cx="1000" cy="775"></circle><circle r="56" cx="348" cy="641"></circle><circle r="72" cx="1721" cy="651"></circle><circle r="56" cx="1351" cy="347"></circle><circle r="64" cx="977" cy="2"></circle><circle r="65" cx="619" cy="782"></circle><circle r="72" cx="1455" cy="20"></circle><circle r="71" cx="997" cy="550"></circle><circle r="52" cx="770" cy="676"></circle><circle r="49" cx="98" cy="525"></circle><circle r="70" cx="560" cy="576"></circle><circle r="49" cx="241" cy="794"></circle><circle r="55" cx="87" cy="708"></circle><circle r="51" cx="1685" cy="140"></circle><circle r="45" cx="578" cy="115"></circle><circle r="47" cx="74" cy="1039"></circle></g></svg>