<svg id="visual" viewBox="0 0 900 600" width="900" height="600" xmlns="http://www.w3.org/2000/svg" xmlns:xlink="http://www.w3.org/1999/xlink" version="1.1"><rect width="900" height="600" fill="#001829"></rect><g><g transform="translate(431 201)"><path d="M0 -88.8L62.8 -62.8L88.8 0L62.8 62.8L0 88.8L-62.8 62.8L-88.8 0L-62.8 -62.8Z" fill="#297EA6"></path></g><g transform="translate(463 496)"><path d="M0 -66L46.7 -46.7L66 0L46.7 46.7L0 66L-46.7 46.7L-66 0L-46.7 -46.7Z" fill="#297EA6"></path></g><g transform="translate(745 136)"><path d="M0 -80L56.6 -56.6L80 0L56.6 56.6L0 80L-56.6 56.6L-80 0L-56.6 -56.6Z" fill="#297EA6"></path></g><g transform="translate(75 271)"><path d="M0 -58L41 -41L58 0L41 41L0 58L-41 41L-58 0L-41 -41Z" fill="#297EA6"></path></g><g transform="translate(225 2)"><path d="M0 -83L58.7 -58.7L83 0L58.7 58.7L0 83L-58.7 58.7L-83 0L-58.7 -58.7Z" fill="#297EA6"></path></g><g transform="translate(269 356)"><path d="M0 -55L38.9 -38.9L55 0L38.9 38.9L0 55L-38.9 38.9L-55 0L-38.9 -38.9Z" fill="#297EA6"></path></g><g transform="translate(892 270)"><path d="M0 -85L60.1 -60.1L85 0L60.1 60.1L0 85L-60.1 60.1L-85 0L-60.1 -60.1Z" fill="#297EA6"></path></g><g transform="translate(499 8)"><path d="M0 -64L45.3 -45.3L64 0L45.3 45.3L0 64L-45.3 45.3L-64 0L-45.3 -45.3Z" fill="#297EA6"></path></g></g></svg>