<svg id="visual" viewBox="0 0 900 600" width="900" height="600" xmlns="http://www.w3.org/2000/svg" xmlns:xlink="http://www.w3.org/1999/xlink" version="1.1"><path d="M0 157L15 163C30 169 60 181 90 196C120 211 150 229 180 212C210 195 240 143 270 113C300 83 330 75 360 99C390 123 420 179 450 182C480 185 510 135 540 118C570 101 600 117 630 131C660 145 690 157 720 153C750 149 780 129 810 129C840 129 870 149 885 159L900 169L900 0L885 0C870 0 840 0 810 0C780 0 750 0 720 0C690 0 660 0 630 0C600 0 570 0 540 0C510 0 480 0 450 0C420 0 390 0 360 0C330 0 300 0 270 0C240 0 210 0 180 0C150 0 120 0 90 0C60 0 30 0 15 0L0 0Z" fill="#6198ff"></path><path d="M0 253L15 251C30 249 60 245 90 249C120 253 150 265 180 266C210 267 240 257 270 248C300 239 330 231 360 246C390 261 420 299 450 284C480 269 510 201 540 174C570 147 600 161 630 175C660 189 690 203 720 197C750 191 780 165 810 162C840 159 870 179 885 189L900 199L900 167L885 157C870 147 840 127 810 127C780 127 750 147 720 151C690 155 660 143 630 129C600 115 570 99 540 116C510 133 480 183 450 180C420 177 390 121 360 97C330 73 300 81 270 111C240 141 210 193 180 210C150 227 120 209 90 194C60 179 30 167 15 161L0 155Z" fill="#1c6fff"></path><path d="M0 397L15 399C30 401 60 405 90 409C120 413 150 417 180 417C210 417 240 413 270 407C300 401 330 393 360 399C390 405 420 425 450 415C480 405 510 365 540 367C570 369 600 413 630 435C660 457 690 457 720 437C750 417 780 377 810 361C840 345 870 353 885 357L900 361L900 197L885 187C870 177 840 157 810 160C780 163 750 189 720 195C690 201 660 187 630 173C600 159 570 145 540 172C510 199 480 267 450 282C420 297 390 259 360 244C330 229 300 237 270 246C240 255 210 265 180 264C150 263 120 251 90 247C60 243 30 247 15 249L0 251Z" fill="#0055d1"></path><path d="M0 481L15 477C30 473 60 465 90 468C120 471 150 485 180 480C210 475 240 451 270 445C300 439 330 451 360 457C390 463 420 463 450 452C480 441 510 419 540 428C570 437 600 477 630 497C660 517 690 517 720 497C750 477 780 437 810 416C840 395 870 393 885 392L900 391L900 359L885 355C870 351 840 343 810 359C780 375 750 415 720 435C690 455 660 455 630 433C600 411 570 367 540 365C510 363 480 403 450 413C420 423 390 403 360 397C330 391 300 399 270 405C240 411 210 415 180 415C150 415 120 411 90 407C60 403 30 399 15 397L0 395Z" fill="#004cbb"></path><path d="M0 499L15 495C30 491 60 483 90 491C120 499 150 523 180 521C210 519 240 491 270 480C300 469 330 475 360 486C390 497 420 513 450 507C480 501 510 473 540 473C570 473 600 501 630 517C660 533 690 537 720 524C750 511 780 481 810 466C840 451 870 451 885 451L900 451L900 389L885 390C870 391 840 393 810 414C780 435 750 475 720 495C690 515 660 515 630 495C600 475 570 435 540 426C510 417 480 439 450 450C420 461 390 461 360 455C330 449 300 437 270 443C240 449 210 473 180 478C150 483 120 469 90 466C60 463 30 471 15 475L0 479Z" fill="#0055d1"></path><path d="M0 547L15 541C30 535 60 523 90 527C120 531 150 551 180 548C210 545 240 519 270 515C300 511 330 529 360 544C390 559 420 571 450 564C480 557 510 531 540 524C570 517 600 529 630 539C660 549 690 557 720 549C750 541 780 517 810 508C840 499 870 505 885 508L900 511L900 449L885 449C870 449 840 449 810 464C780 479 750 509 720 522C690 535 660 531 630 515C600 499 570 471 540 471C510 471 480 499 450 505C420 511 390 495 360 484C330 473 300 467 270 478C240 489 210 517 180 519C150 521 120 497 90 489C60 481 30 489 15 493L0 497Z" fill="#1c6fff"></path><path d="M0 601L15 601C30 601 60 601 90 601C120 601 150 601 180 601C210 601 240 601 270 601C300 601 330 601 360 601C390 601 420 601 450 601C480 601 510 601 540 601C570 601 600 601 630 601C660 601 690 601 720 601C750 601 780 601 810 601C840 601 870 601 885 601L900 601L900 509L885 506C870 503 840 497 810 506C780 515 750 539 720 547C690 555 660 547 630 537C600 527 570 515 540 522C510 529 480 555 450 562C420 569 390 557 360 542C330 527 300 509 270 513C240 517 210 543 180 546C150 549 120 529 90 525C60 521 30 533 15 539L0 545Z" fill="#6198ff"></path></svg>