<svg id="visual" viewBox="0 0 900 600" width="900" height="600" xmlns="http://www.w3.org/2000/svg" xmlns:xlink="http://www.w3.org/1999/xlink" version="1.1"><rect width="900" height="600" fill="#931F1F"></rect><g><g transform="translate(276 187)"><path d="M87.2 -23.6C101.5 15.8 93.8 67.1 61.8 92C29.8 116.9 -26.5 115.4 -61.9 88.8C-97.4 62.2 -112.1 10.5 -98.3 -28.1C-84.5 -66.7 -42.2 -92.2 -2.9 -91.3C36.4 -90.4 72.9 -62.9 87.2 -23.6Z" stroke="#F7760E" fill="none" stroke-width="20"></path></g><g transform="translate(64 553)"><path d="M71.8 -24.7C81.6 6.7 70 43.6 44.2 62.8C18.3 82.1 -21.9 83.8 -48.3 64.9C-74.7 46.1 -87.5 6.8 -77.1 -25.4C-66.8 -57.7 -33.4 -82.8 -1.2 -82.4C31 -82 62.1 -56.1 71.8 -24.7Z" stroke="#F7760E" fill="none" stroke-width="20"></path></g><g transform="translate(783 414)"><path d="M77 -27.7C86.7 5 72.6 42.8 43.6 65.1C14.6 87.3 -29.3 94 -58.3 74.3C-87.3 54.7 -101.4 8.6 -89.2 -27.5C-77 -63.6 -38.5 -89.6 -2.4 -88.9C33.6 -88.1 67.2 -60.4 77 -27.7Z" stroke="#F7760E" fill="none" stroke-width="20"></path></g></g></svg>