<svg id="visual" viewBox="0 0 900 600" width="900" height="600" xmlns="http://www.w3.org/2000/svg" xmlns:xlink="http://www.w3.org/1999/xlink" version="1.1"><rect x="0" y="0" width="900" height="600" fill="#002233"></rect><path d="M351 0L320.5 7.2C290 14.3 229 28.7 204.5 43C180 57.3 192 71.7 224.3 86C256.7 100.3 309.3 114.7 322.5 128.8C335.7 143 309.3 157 273 171.2C236.7 185.3 190.3 199.7 208.7 214C227 228.3 310 242.7 339.7 257C369.3 271.3 345.7 285.7 310.7 300C275.7 314.3 229.3 328.7 222.5 343C215.7 357.3 248.3 371.7 282.5 386C316.7 400.3 352.3 414.7 363.8 428.8C375.3 443 362.7 457 373 471.2C383.3 485.3 416.7 499.7 427.5 514C438.3 528.3 426.7 542.7 430.2 557C433.7 571.3 452.3 585.7 461.7 592.8L471 600" fill="none" stroke-linecap="round" stroke-linejoin="miter" stroke="#0066FF" stroke-width="40"></path></svg>